<svg id="wave" style="transform:rotate(0deg); transition: 0.3s" viewBox="0 0 1440 240" version="1.1"
    xmlns="http://www.w3.org/2000/svg">
    <defs>
        <linearGradient id="sw-gradient-0" x1="0" x2="0" y1="1" y2="0">
            <stop stop-color="rgba(0, 0, 77, 1)" offset="0%"></stop>
            <stop stop-color="rgba(0, 0, 77, 1)" offset="100%"></stop>
        </linearGradient>
    </defs>
    <path style="transform:translate(0, 0px); opacity:1" fill="url(#sw-gradient-0)"
        d="M0,120L80,128C160,136,320,152,480,132C640,112,800,56,960,60C1120,64,1280,128,1440,128C1600,128,1760,64,1920,48C2080,32,2240,64,2400,100C2560,136,2720,176,2880,184C3040,192,3200,168,3360,164C3520,160,3680,176,3840,188C4000,200,4160,208,4320,192C4480,176,4640,136,4800,116C4960,96,5120,96,5280,92C5440,88,5600,80,5760,84C5920,88,6080,104,6240,104C6400,104,6560,88,6720,76C6880,64,7040,56,7200,80C7360,104,7520,160,7680,152C7840,144,8000,72,8160,36C8320,0,8480,0,8640,4C8800,8,8960,16,9120,52C9280,88,9440,152,9600,148C9760,144,9920,72,10080,60C10240,48,10400,96,10560,100C10720,104,10880,64,11040,68C11200,72,11360,120,11440,144L11520,168L11520,240L11440,240C11360,240,11200,240,11040,240C10880,240,10720,240,10560,240C10400,240,10240,240,10080,240C9920,240,9760,240,9600,240C9440,240,9280,240,9120,240C8960,240,8800,240,8640,240C8480,240,8320,240,8160,240C8000,240,7840,240,7680,240C7520,240,7360,240,7200,240C7040,240,6880,240,6720,240C6560,240,6400,240,6240,240C6080,240,5920,240,5760,240C5600,240,5440,240,5280,240C5120,240,4960,240,4800,240C4640,240,4480,240,4320,240C4160,240,4000,240,3840,240C3680,240,3520,240,3360,240C3200,240,3040,240,2880,240C2720,240,2560,240,2400,240C2240,240,2080,240,1920,240C1760,240,1600,240,1440,240C1280,240,1120,240,960,240C800,240,640,240,480,240C320,240,160,240,80,240L0,240Z"></path>
</svg>