<svg id="wave" style="transform:rotate(0deg); transition: 0.3s" viewBox="0 0 1440 490" version="1.1"
    xmlns="http://www.w3.org/2000/svg">
    <defs>
        <linearGradient id="sw-gradient-0" x1="0" x2="0" y1="1" y2="0">
            <stop stop-color="rgba(0, 0, 77, 1)" offset="0%"></stop>
            <stop stop-color="rgba(0, 0, 77, 1)" offset="100%"></stop>
        </linearGradient>
    </defs>
    <path style="transform:translate(0, 0px); opacity:1" fill="url(#sw-gradient-0)"
        d="M0,245L120,261.3C240,278,480,310,720,269.5C960,229,1200,114,1440,122.5C1680,131,1920,261,2160,261.3C2400,261,2640,131,2880,98C3120,65,3360,131,3600,204.2C3840,278,4080,359,4320,375.7C4560,392,4800,343,5040,334.8C5280,327,5520,359,5760,383.8C6000,408,6240,425,6480,392C6720,359,6960,278,7200,236.8C7440,196,7680,196,7920,187.8C8160,180,8400,163,8640,171.5C8880,180,9120,212,9360,212.3C9600,212,9840,180,10080,155.2C10320,131,10560,114,10800,163.3C11040,212,11280,327,11520,310.3C11760,294,12000,147,12240,73.5C12480,0,12720,0,12960,8.2C13200,16,13440,33,13680,106.2C13920,180,14160,310,14400,302.2C14640,294,14880,147,15120,122.5C15360,98,15600,196,15840,204.2C16080,212,16320,131,16560,138.8C16800,147,17040,245,17160,294L17280,343L17280,490L17160,490C17040,490,16800,490,16560,490C16320,490,16080,490,15840,490C15600,490,15360,490,15120,490C14880,490,14640,490,14400,490C14160,490,13920,490,13680,490C13440,490,13200,490,12960,490C12720,490,12480,490,12240,490C12000,490,11760,490,11520,490C11280,490,11040,490,10800,490C10560,490,10320,490,10080,490C9840,490,9600,490,9360,490C9120,490,8880,490,8640,490C8400,490,8160,490,7920,490C7680,490,7440,490,7200,490C6960,490,6720,490,6480,490C6240,490,6000,490,5760,490C5520,490,5280,490,5040,490C4800,490,4560,490,4320,490C4080,490,3840,490,3600,490C3360,490,3120,490,2880,490C2640,490,2400,490,2160,490C1920,490,1680,490,1440,490C1200,490,960,490,720,490C480,490,240,490,120,490L0,490Z"></path>
</svg>