<?xml version="1.0" encoding="UTF-8" standalone="no"?>
<svg
   width="1258.5366pt"
   height="841.89062pt"
   viewBox="0 0 1258.5366 841.89061"
   version="1.1"
   id="svg193"
   xmlns="http://www.w3.org/2000/svg"
   xmlns:svg="http://www.w3.org/2000/svg">
  <defs
     id="defs66">
    <clipPath
       id="clip5-3">
      <path
         d="M 170.73828,300.48828 H 424.53516 V 541.39844 H 170.73828 Z m 0,0"
         id="path62-8" />
    </clipPath>
  </defs>
  <g
     clip-path="url(#clip5-3)"
     clip-rule="nonzero"
     id="g193"
     style="opacity:0.617251"
     transform="translate(-171.35152,99.23625)">
    <g
       id="g1">
      <path
         d="m 243.90966,512.66899 c 2.76194,0.004 5.5232,0.0149 8.28516,0.0234 1.07421,0.008 1.45312,-0.29394 1.42968,-1.40332 -0.0534,-2.36795 -0.0718,-4.74236 -0.0146,-7.11328 l -9.70019,1.34766 v 2.41846 h -2.21924 v 2.6206 h 2.21924 z"
         style="opacity:0.121294;fill:#000059"
         id="path83" />
      <path
         d="m 240.9873,540.77787 c 8.83983,0.004 17.67969,-0.01 26.51953,0 1.3125,0 1.62597,-0.38671 1.49707,-1.64062 -0.4375,-4.20703 -0.77832,-8.42529 -1.15723,-12.64014 -0.93475,-10.46691 -1.88994,-20.93791 -2.77734,-31.41211 v 1.87207 l -3.02344,6.04688 -8.43604,1.17187 c -0.0572,2.37092 -0.0387,4.74533 0.0146,7.11328 0.0234,1.10938 -0.35547,1.41132 -1.42968,1.40332 -2.76196,-0.008 -5.52322,-0.0196 -8.28516,-0.0234 v 12.10107 h -2.92236 z"
         style="opacity:0.121294;fill:#000059"
         id="path82" />
      <path
         d="m 240.9873,540.77787 v -16.00781 h 2.92236 v -12.10107 c -13.7809,-0.0192 -27.56162,0.006 -41.33936,-0.11719 -4.9453,-0.043 -9.77051,-1.09424 -14.41113,-2.96924 -5.87109,-2.36328 -9.02734,-6.69874 -9.91406,-12.85107 -0.19531,-1.37891 0.0317,-3.22267 -0.76904,-4.00782 -0.9336,-0.91797 -2.81299,-0.16064 -4.27002,-0.3208 -1.42188,-0.15234 -1.8584,0.35938 -1.8545,1.81641 0.0508,14.94139 0.0464,29.88234 0.007,44.81982 -0.004,1.31641 0.32764,1.74277 1.70654,1.73877 22.6406,-0.0253 45.28127,-0.0111 67.92188,0 z"
         style="opacity:0.121294;fill:#000059"
         id="path81" />
      <path
         d="m 328.67577,540.7852 c -1.60547,0.008 -2.04687,-0.35889 -1.89843,-2.01123 1.05263,-11.80433 2.04169,-23.61465 3.02783,-35.42578 l -2.48145,-0.34424 -3.02344,-6.04688 v -23.60888 l 2.5503,-1.07373 0.33984,-3.89942 h -1.47949 c 0,0 -1.61379,-3.15576 -17.73486,-3.86279 v -3.82764 l -2.62061,-2.82129 -2.28223,-73.18359 2.14893,-4.90576 -0.20361,-11.68799 -4.69922,-2.08594 c 0,0 -0.0698,-2.07813 -3.62842,-2.68359 0,0 4.96826,-0.19825 6.65185,-1.67871 0,0 -4.3706,-7.3252 -4.83544,-8.86817 l 1.60986,-1.81201 -2.15332,-6.25049 3.62988,-3.6914 2.35108,-0.60498 -0.0352,-0.40577 h 1.3125 c 0,0 0.77392,-0.56689 -0.13623,-1.0708 h 1.64355 c 0,0 1.21143,-0.40234 0.27393,-1.20703 h 1.20703 c 0,0 0.50391,-0.67627 -0.26953,-1.04736 l 0.23877,-0.33106 c 0,0 1.6128,-0.30468 0.53467,-1.3125 l -1.3125,0.27247 v -0.8086 h -4.29639 l 0.34717,-13.98779 -1.9336,-4.04736 0.3794,3.8291 -0.33692,13.90576 c 0,0 -2.90527,-1.32861 -3.81152,2.04639 l -1.8164,1.61425 -0.28565,-0.67675 c 0.61718,-0.47657 1.17919,-1.167 1.24951,-1.97168 0.10156,-1.19141 -0.86719,-2.14893 -1.98047,-2.27784 v -1.28466 l 1.2583,-0.20801 -0.0308,-1.20996 -1.53515,0.11718 -1.53516,-0.11718 -0.0396,1.20996 1.24951,0.20361 v 1.3125 c -0.0898,0.0195 -0.17481,0.0195 -0.26074,0.0469 -0.33203,0.10937 -0.60254,0.35205 -0.81738,0.62548 -0.53516,0.67188 -0.67921,1.49561 -0.35889,2.29248 0.13281,0.33594 0.33155,0.64844 0.5581,0.92579 0.0195,0.0234 0.31739,0.31982 0.31348,0.33545 l -0.28125,0.67675 -1.8164,-1.61425 c -0.91015,-3.37891 -3.81299,-2.04639 -3.81299,-2.04639 l -0.49659,-4.65235 c 2.16406,-2.32031 0.375,-3.82763 0.375,-3.82763 -1.30468,-1.0625 -2.76855,0 -2.76855,0 -1.66406,2.71484 0.83936,4.0459 0.83936,4.0459 l 0.5039,4.73437 h -4.29638 v 0.8086 l -1.30958,-0.27247 c -1.07812,1.00782 0.53614,1.3125 0.53614,1.3125 l 0.23437,0.33106 c -0.76953,0.37109 -0.2666,1.04736 -0.2666,1.04736 h 1.20703 c -0.94141,0.80469 0.2666,1.20703 0.2666,1.20703 h 1.64795 c -0.90625,0.50391 -0.13623,1.0708 -0.13623,1.0708 h 1.3125 l -0.0351,0.40577 2.35107,0.60498 3.62549,3.6914 -2.14453,6.25049 1.6084,1.81201 c -0.46875,1.54297 -4.83545,8.86817 -4.83545,8.86817 1.67969,1.48046 6.65185,1.67871 6.65185,1.67871 -3.55859,0.60546 -3.62842,2.68359 -3.62842,2.68359 l -4.70361,2.08594 -0.20215,11.68799 2.15186,4.90576 -2.28516,73.18359 -2.61767,2.82129 v 3.82764 c -16.12499,0.70703 -17.7334,3.86279 -17.7334,3.86279 h -1.48096 l 0.33984,3.89942 2.5503,1.07373 v 21.73681 c 0.8874,10.4742 1.84259,20.9452 2.77734,31.41211 0.37891,4.21485 0.71973,8.43311 1.15723,12.64014 0.1289,1.25391 -0.18457,1.64062 -1.49707,1.64062 -8.83984,-0.01 -17.6797,0.004 -26.51953,0 v 0.007 z"
         style="opacity:0.121294;fill:#000059"
         id="path80" />
      <path
         d="m 293.22816,539.5449 c -6.56872,0.004 -13.13812,-0.008 -19.70655,0.0147 h 19.70655 z"
         style="fill:#000059"
         id="path79" />
      <path
         d="m 342.11278,505.05912 -12.30761,-1.71093 c -0.98614,11.81113 -1.9752,23.62145 -3.02783,35.42578 -0.14844,1.65234 0.29296,2.01923 1.89843,2.01123 6.56843,-0.0229 13.13783,-0.0109 19.70655,-0.0147 v 0 c 9.13898,-0.005 18.27662,-0.0205 27.41748,-0.0205 15.77342,0 31.54395,-0.0234 47.31738,0.0352 1.58203,0.004 2.03827,-0.39795 2.03027,-2.01123 -0.0625,-14.36327 -0.0196,-28.72219 -0.0469,-43.08545 -0.008,-3.75 0.58202,-3.2314 -3.23438,-3.2666 -3.08984,-0.0274 -3.05078,0.004 -3.60937,3 -1.37891,7.39842 -5.01563,12.96191 -12.58594,15.2666 -3.82812,1.16406 -7.76954,1.82036 -11.74219,1.85156 -16.15531,0.11426 -32.31015,0.0945 -48.46875,0.15088 v 0 c -0.96205,0.003 -1.92366,0.005 -2.88574,0.009 -1.26561,0.004 -1.31738,-0.55518 -1.19238,-1.51611 0.25623,-2.04132 0.53399,-4.0813 0.73095,-6.12452 z"
         style="opacity:0.121294;fill:#000059"
         id="path78" />
      <path
         d="m 342.11278,505.05912 c -0.19696,2.04322 -0.47472,4.0832 -0.73095,6.12452 -0.125,0.96093 -0.0732,1.52002 1.19238,1.51611 0.96208,-0.004 1.92369,-0.005 2.88574,-0.009 v -2.12842 h 2.21485 v -2.6206 h -2.21485 v -2.41846 z"
         style="opacity:0.121294;fill:#000059"
         id="path77" />
      <path
         d="m 299.36425,299.9019 c -16.02764,-0.24535 -31.85402,1.43506 -47.31006,6.16552 -28.22263,8.64062 -49.78175,25.68362 -63.76611,51.77344 -9.7539,18.1992 -12.37451,37.84671 -10.13233,58.19824 3.07422,27.89061 16.03518,50.19583 38.51953,66.91846 10.59374,7.8789 22.48098,13.23047 35.09034,17.00391 1.36328,0.41015 1.95215,0.95654 1.87793,2.47998 -0.0276,0.57735 -0.0198,1.15629 -0.0337,1.73437 l 8.43604,-1.17187 3.02344,-6.04688 V 495.085 c -0.0323,-0.38099 -0.069,-0.76158 -0.10108,-1.14258 -0.11328,-1.36327 -0.64062,-1.96142 -1.88672,-2.43017 -7.50389,-2.82031 -14.35156,-6.78125 -20.41406,-12.04688 -12.55077,-10.90233 -19.18701,-25.07033 -22.50732,-41.02734 -3.11328,-14.99218 -3.60205,-30.14895 -2.23096,-45.35596 1.14453,-12.72655 4.03858,-25.06153 9.89795,-36.50683 22.08982,-43.17574 66.31693,-52.94139 101.5708,-37.75782 22.57419,9.72265 36.58204,27.56932 43.44141,50.93262 6.58593,22.42576 6.86376,45.26565 2.9458,68.16797 -2.2539,13.18749 -7.34426,25.16896 -16.58643,35.1416 -7.53515,8.1289 -16.62061,14.00293 -26.71435,18.38965 -1.21093,0.52734 -1.76172,1.15235 -1.875,2.49609 -0.2581,3.13562 -0.54246,6.26787 -0.8042,9.40284 l 12.30761,1.71093 c 0.0733,-0.76017 0.17502,-1.51917 0.20362,-2.28076 0.0664,-1.86718 0.8711,-2.41796 2.53125,-2.8125 11.96874,-2.84375 23.22609,-7.48145 33.0542,-14.90332 33.74996,-25.49606 46.02392,-59.82767 38.79345,-100.72998 -6.03515,-34.12887 -26.36038,-57.96144 -57.958,-72.08642 -16.68749,-7.46093 -34.26467,-11.25342 -52.49121,-12.12452 -2.29737,-0.11035 -4.59218,-0.18467 -6.88184,-0.21972 z"
         style="opacity:0.121294;fill:#000059"
         id="path76" />
    </g>
  </g>
</svg>
