<svg version="1.1" xmlns="http://www.w3.org/2000/svg"
    xmlns:xlink="http://www.w3.org/1999/xlink" viewBox="0 0 363.025 363.024" xml:space="preserve"
    fill="#ffffff" stroke="#ffffff">
        
    <g stroke-width="0"/>
    
    <g stroke-linecap="round" stroke-linejoin="round"/>
    
     <g> <path  d="M181.512,363.024c100.083,0,181.513-81.43,181.513-181.512C363.025,81.424,281.595,0,181.512,0 C81.422,0,0,81.424,0,181.513C0,281.595,81.422,363.024,181.512,363.024z M181.512,11.71c93.633,0,169.803,76.176,169.803,169.803 c0,93.632-76.17,169.802-169.803,169.802c-91.656,0-166.545-73.014-169.656-163.936l189.944,0.366l-32.959,32.959l8.28,8.279 l47.065-47.06l-47.885-47.885l-8.28,8.28l33.722,33.725l-189.892-0.375C14.956,84.744,89.844,11.71,181.512,11.71z"/> </g> 
    
    </svg>