<?xml version="1.0" encoding="utf-8"?>
<svg width="72.152344pt" height="65.225098pt" viewBox="-546.85 -351.785 702.158 532.434" version="1.1" id="svg193" xmlns="http://www.w3.org/2000/svg">
  <defs id="defs66"/>
  <g id="surface1" transform="matrix(8.119581, 0, 0, 7.733072, -2837.177734, -3610.81665)" style="">
    <path style="fill:#000059;fill-opacity:1;fill-rule:nonzero;stroke:none" d="m 291.13253,469.75891 c -0.75781,0.77344 -1.14062,1.76172 -1.14062,2.96094 0,1.21875 0.3789,2.20703 1.13281,2.97265 0.75391,0.76563 1.71875,1.14844 2.89453,1.14844 1.15235,0 2.11328,-0.38281 2.87891,-1.15625 0.76562,-0.77344 1.14844,-1.76172 1.14844,-2.96484 0,-1.19922 -0.38282,-2.1875 -1.14844,-2.96094 -0.76563,-0.77344 -1.72656,-1.15625 -2.87891,-1.15625 -1.16406,0 -2.125,0.38281 -2.88672,1.15625 m 7.59766,-1.66016 c 1.30078,1.2461 1.95312,2.78906 1.95312,4.6211 0,1.83593 -0.65234,3.3789 -1.95312,4.625 -1.30469,1.24609 -2.88281,1.87109 -4.73047,1.87109 -1.84766,0 -3.41797,-0.625 -4.70703,-1.87109 -1.29297,-1.2461 -1.9375,-2.78907 -1.9375,-4.625 0,-1.83204 0.64453,-3.375 1.9375,-4.6211 1.28906,-1.24609 2.85937,-1.87109 4.70703,-1.87109 1.84766,0 3.42578,0.625 4.73047,1.87109" id="path175"/>
    <path style="fill:#000059;fill-opacity:1;fill-rule:nonzero;stroke:none" d="m 316.63253,466.22766 v 12.76172 h -2.5625 v -6.70313 l -3.15234,3.96875 h -0.83594 l -3.15234,-3.96875 v 6.70313 h -2.5625 v -12.76172 h 0.83594 l 5.29687,6.79687 5.30078,-6.79687" id="path176"/>
    <path style="fill:#000059;fill-opacity:1;fill-rule:nonzero;stroke:none" d="m 329.46847,468.77063 h -5.86719 v 2.54687 h 4.3086 v 2.1836 h -4.3086 v 3.17187 h 6.09375 v 2.31641 h -8.65625 v -12.53125 h 8.42969" id="path177"/>
    <path style="fill:#000059;fill-opacity:1;fill-rule:nonzero;stroke:none" d="m 344.40988,468.9425 -1.82032,1.5 c -0.88671,-1.22656 -2.05078,-1.83984 -3.49609,-1.83984 -1.20312,0 -2.17187,0.38281 -2.91406,1.15625 -0.74219,0.77344 -1.10938,1.76172 -1.10938,2.96484 0,1.22656 0.38282,2.23438 1.14844,3.01563 0.76563,0.78515 1.77344,1.17968 3.02734,1.17968 1.45704,0 2.5586,-0.51953 3.30469,-1.55859 v -1.02344 h -3.45703 v -2.22265 h 6.01953 v 3.70312 c -0.5664,1.01172 -1.38281,1.83203 -2.4375,2.45703 -1.05859,0.62891 -2.23828,0.94141 -3.54297,0.94141 -1.88672,0 -3.47656,-0.625 -4.76562,-1.87109 -1.29297,-1.2461 -1.9375,-2.78907 -1.9375,-4.6211 0,-1.83594 0.64453,-3.3789 1.9375,-4.625 1.28906,-1.24609 2.8789,-1.87109 4.76562,-1.87109 2.25391,0 4.01172,0.90625 5.27735,2.71484" id="path178"/>
    <path style="fill:#000059;fill-opacity:1;fill-rule:nonzero;stroke:none" d="m 353.488,471.03235 -1.65234,4.21484 h 3.30469 z m 2.5625,6.32421 h -5.125 l -0.70312,1.63282 h -2.75391 l 5.60156,-12.76172 h 0.85547 l 5.58203,12.76172 h -2.7539" id="path179"/>
    <path style="fill:#000059;fill-opacity:1;fill-rule:nonzero;stroke:none" d="m 330.69894,457.61438 v -2.1875 h 0.33984 v -0.40235 h -0.33984 v -0.37109 l -2.79297,-0.39063 -0.46484,-0.92968 v -3.63672 l 0.39062,-0.16406 0.0547,-0.60157 h -0.23047 c 0,0 -0.24609,-0.48437 -2.72656,-0.59375 v -0.58984 l -0.40625,-0.43359 -0.35156,-11.26563 0.33203,-0.75781 -0.0312,-1.80078 -0.72266,-0.31641 c 0,0 -0.0117,-0.32422 -0.55859,-0.41406 0,0 0.76562,-0.0312 1.02343,-0.26172 0,0 -0.67187,-1.125 -0.74609,-1.36328 l 0.25,-0.28125 -0.33203,-0.96094 0.55859,-0.57031 0.36328,-0.0898 -0.008,-0.0625 h 0.20313 c 0,0 0.11718,-0.0898 -0.0195,-0.16406 h 0.25 c 0,0 0.1875,-0.0625 0.043,-0.1875 h 0.1875 c 0,0 0.0781,-0.10547 -0.043,-0.16016 l 0.0351,-0.0508 c 0,0 0.25,-0.0469 0.0859,-0.20313 l -0.20313,0.043 v -0.125 h -0.66015 l 0.0508,-2.15625 -0.29688,-0.62109 0.0586,0.58984 -0.0508,2.14063 c 0,0 -0.44922,-0.20313 -0.58985,0.31641 l -0.27734,0.24609 -0.043,-0.10156 c 0.0937,-0.0742 0.17969,-0.1836 0.19141,-0.30469 0.0156,-0.18359 -0.13282,-0.33203 -0.30469,-0.35156 v -0.19922 l 0.19141,-0.0312 -0.004,-0.1836 -0.23438,0.0156 -0.23828,-0.0156 -0.004,0.1836 0.1914,0.0312 v 0.20312 c -0.0156,0.004 -0.0273,0.004 -0.0391,0.008 -0.0508,0.0156 -0.0937,0.0547 -0.12891,0.0977 -0.082,0.10157 -0.10156,0.22657 -0.0547,0.35157 0.0195,0.0508 0.0508,0.0977 0.0859,0.14062 0.004,0.008 0.0508,0.0508 0.0508,0.0547 l -0.0469,0.10156 -0.27734,-0.24609 c -0.14063,-0.52344 -0.58594,-0.31641 -0.58594,-0.31641 l -0.0781,-0.71484 c 0.33204,-0.35938 0.0586,-0.58984 0.0586,-0.58984 -0.20313,-0.16407 -0.42578,0 -0.42578,0 -0.25782,0.41796 0.1289,0.62109 0.1289,0.62109 l 0.0781,0.73047 h -0.66406 v 0.125 l -0.19922,-0.043 c -0.16797,0.15625 0.082,0.20312 0.082,0.20312 l 0.0351,0.0508 c -0.11718,0.0547 -0.0391,0.16016 -0.0391,0.16016 h 0.1836 c -0.14454,0.125 0.043,0.1875 0.043,0.1875 h 0.25391 c -0.14062,0.0742 -0.0234,0.16406 -0.0234,0.16406 h 0.20313 l -0.008,0.0625 0.36328,0.0898 0.55859,0.57031 -0.32812,0.96094 0.24609,0.28125 c -0.0742,0.23828 -0.74219,1.36328 -0.74219,1.36328 0.25781,0.23047 1.02344,0.26172 1.02344,0.26172 -0.55078,0.0898 -0.55859,0.41406 -0.55859,0.41406 l -0.72657,0.31641 -0.0312,1.80078 0.33203,0.75781 -0.35156,11.26563 -0.40234,0.43359 v 0.58985 c -2.48438,0.10937 -2.73047,0.59375 -2.73047,0.59375 h -0.22656 l 0.0508,0.60156 0.39062,0.16406 v 3.63672 l -0.46484,0.92969 -2.79297,0.39062 v 0.3711 h -0.33984 v 0.40234 h 0.33984 v 2.1875 h -0.44922 v 2.46875 h 16.53516 v -2.46875" id="path180"/>
    <path style="fill:#000059;fill-opacity:1;fill-rule:nonzero;stroke:none" d="m 335.37081,460.07531 c -2.41796,0 -4.83984,-0.004 -7.25781,0.008 -0.24609,0 -0.3125,-0.0586 -0.29297,-0.3125 0.20703,-2.29687 0.40235,-4.59765 0.59375,-6.90234 0.0156,-0.20703 0.10157,-0.30078 0.28516,-0.38281 1.55859,-0.67578 2.95312,-1.58203 4.11328,-2.83203 1.42578,-1.53516 2.20703,-3.37891 2.55469,-5.41016 0.60547,-3.52734 0.5625,-7.04297 -0.45313,-10.49609 -1.05468,-3.59766 -3.21093,-6.34375 -6.6875,-7.83985 -5.42578,-2.33984 -12.23828,-0.83594 -15.63672,5.8125 -0.90234,1.76172 -1.35156,3.66016 -1.52734,5.6211 -0.21094,2.33984 -0.13281,4.67578 0.34375,6.98046 0.51172,2.45704 1.53516,4.64063 3.46484,6.32032 0.9336,0.80859 1.98829,1.41797 3.14454,1.85156 0.1914,0.0742 0.27343,0.16406 0.29296,0.375 0.13672,1.67187 0.29297,3.34375 0.44141,5.01562 0.0586,0.64454 0.10938,1.29688 0.17969,1.94532 0.0195,0.1914 -0.0312,0.25 -0.23047,0.25 -4.84766,-0.004 -9.69531,-0.004 -14.54297,0 -0.21094,0 -0.26172,-0.0625 -0.26172,-0.26563 0.004,-2.30078 0.004,-4.60156 -0.004,-6.90234 0,-0.22266 0.0664,-0.30469 0.28906,-0.27735 0.22265,0.0234 0.51172,-0.0937 0.65625,0.0469 0.12109,0.1211 0.0898,0.40625 0.11719,0.61719 0.13671,0.94922 0.625,1.61719 1.52734,1.98047 0.71484,0.28516 1.45703,0.44922 2.21875,0.45703 2.54687,0.0234 5.09375,0.0117 7.64062,0.0195 0.16407,0.004 0.22266,-0.043 0.21875,-0.21484 -0.008,-0.45313 -0.0195,-0.91016 0.004,-1.36328 0.0117,-0.23438 -0.0781,-0.31641 -0.28906,-0.37891 -1.94141,-0.58203 -3.76953,-1.40625 -5.40235,-2.62109 -3.46093,-2.57422 -5.45703,-6.00782 -5.92968,-10.30078 -0.34766,-3.13672 0.0547,-6.16016 1.55859,-8.96094 2.15234,-4.01953 5.47266,-6.64063 9.81641,-7.97266 2.72265,-0.83203 5.51562,-1.05078 8.34375,-0.91406 2.80859,0.13281 5.51562,0.71875 8.08203,1.86719 4.86719,2.17187 7.99609,5.84375 8.92578,11.09765 1.11328,6.29688 -0.77734,11.58203 -5.97266,15.50782 -1.51562,1.14453 -3.25,1.85546 -5.08984,2.29687 -0.25391,0.0586 -0.37891,0.14453 -0.39063,0.42969 -0.0156,0.43359 -0.0898,0.86719 -0.14453,1.29687 -0.0156,0.14844 -0.0117,0.23438 0.1836,0.23438 2.63672,-0.0117 5.27343,-0.008 7.90625,-0.0273 0.61328,-0.004 1.21875,-0.10547 1.80859,-0.28516 1.16797,-0.35547 1.72656,-1.21093 1.9375,-2.34765 0.0859,-0.46485 0.082,-0.46875 0.55859,-0.46485 0.58594,0.008 0.4961,-0.0742 0.4961,0.50391 0.004,2.21094 -0.004,4.42187 0.008,6.63281 0,0.25 -0.0703,0.3125 -0.3125,0.3125 -2.42969,-0.0117 -4.85547,-0.008 -7.28516,-0.008" id="path181"/>
    <path style="fill:#000059;fill-opacity:1;fill-rule:nonzero;stroke:none" d="m 303.71847,483.20813 c 0.28516,0.17578 0.50391,0.40624 0.66406,0.69921 l -0.70703,0.55078 c -0.26172,-0.39453 -0.58594,-0.58593 -0.97265,-0.58593 -0.17969,0 -0.32813,0.043 -0.44922,0.125 -0.1211,0.0859 -0.1836,0.20703 -0.1836,0.36718 0,0.13282 0.0469,0.23829 0.13672,0.32032 0.0899,0.0781 0.24219,0.16797 0.45703,0.26562 l 0.57813,0.25391 c 0.42969,0.1914 0.74219,0.39844 0.94922,0.6289 0.20703,0.22657 0.30859,0.51172 0.30859,0.85547 0,0.46485 -0.16797,0.83203 -0.50391,1.11328 -0.33203,0.27735 -0.75781,0.41407 -1.27734,0.41407 -0.42969,0 -0.81641,-0.10157 -1.16016,-0.30469 -0.33984,-0.20313 -0.60937,-0.47656 -0.80468,-0.82031 l 0.71875,-0.53907 c 0.35156,0.49219 0.76953,0.73829 1.24609,0.73829 0.22656,0 0.40234,-0.0508 0.53125,-0.14844 0.12891,-0.10156 0.19531,-0.23828 0.19531,-0.41406 0,-0.10157 -0.0312,-0.19141 -0.0898,-0.26954 -0.0586,-0.082 -0.125,-0.14453 -0.19922,-0.18359 -0.0781,-0.043 -0.19531,-0.10156 -0.35937,-0.17578 l -0.54688,-0.24609 c -0.39453,-0.17969 -0.69922,-0.38672 -0.91406,-0.61719 -0.21485,-0.23047 -0.32031,-0.51563 -0.32031,-0.84766 0,-0.43359 0.16015,-0.78125 0.47656,-1.04296 0.32031,-0.26563 0.72265,-0.39844 1.21094,-0.39844 0.39062,0 0.73046,0.0859 1.01562,0.26172" id="path182"/>
    <path style="fill:#000059;fill-opacity:1;fill-rule:nonzero;stroke:none" d="m 310.22628,483.97766 h -2.38281 v 1.03515 h 1.75 v 0.88281 h -1.75 v 1.28907 h 2.47266 v 0.9414 h -3.51172 v -5.08593 h 3.42187" id="path183"/>
    <path style="fill:#000059;fill-opacity:1;fill-rule:nonzero;stroke:none" d="m 316.22628,483.28235 c 0.39063,0.22265 0.69922,0.53124 0.92578,0.92968 l -0.78515,0.55078 c -0.35938,-0.57031 -0.84375,-0.85547 -1.45703,-0.85547 -0.47657,0 -0.8711,0.16016 -1.17969,0.47266 -0.30469,0.3125 -0.46094,0.71484 -0.46094,1.21094 0,0.48828 0.15625,0.88672 0.46094,1.19531 0.30859,0.3125 0.70312,0.46875 1.17969,0.46875 0.61328,0 1.09765,-0.28516 1.45703,-0.85547 l 0.78515,0.55469 c -0.21875,0.39453 -0.52734,0.70312 -0.92578,0.92578 -0.39453,0.22656 -0.83593,0.33594 -1.32422,0.33594 -0.75781,0 -1.39843,-0.25 -1.92187,-0.75782 -0.52344,-0.50781 -0.78125,-1.13281 -0.78125,-1.875 0,-0.74609 0.26172,-1.37109 0.78516,-1.8789 0.52343,-0.50391 1.16796,-0.75781 1.92578,-0.75781 0.48437,0 0.92187,0.11328 1.3164,0.33594" id="path184"/>
    <path style="fill:#000059;fill-opacity:1;fill-rule:nonzero;stroke:none" d="m 323.69503,486.02062 c 0,0.66797 -0.20312,1.19922 -0.60547,1.59766 -0.40234,0.39844 -0.91796,0.59766 -1.55078,0.59766 -0.63281,0 -1.14843,-0.19922 -1.55468,-0.59766 -0.40235,-0.39844 -0.60157,-0.92969 -0.60157,-1.59766 v -2.98046 h 1.03907 v 3.05859 c 0,0.36719 0.10156,0.65234 0.3125,0.85547 0.20703,0.19922 0.47656,0.30078 0.80468,0.30078 0.33203,0 0.60157,-0.10156 0.8086,-0.30078 0.20703,-0.20313 0.30859,-0.48828 0.30859,-0.85547 v -3.05859 h 1.03906" id="path185"/>
    <path style="fill:#000059;fill-opacity:1;fill-rule:nonzero;stroke:none" d="m 327.24972,485.41125 h 0.87109 c 0.23829,0 0.42969,-0.0664 0.56641,-0.19922 0.13281,-0.13281 0.20313,-0.3125 0.20313,-0.53125 0,-0.21484 -0.0703,-0.39062 -0.20704,-0.52344 -0.14062,-0.13672 -0.32812,-0.20312 -0.5625,-0.20312 h -0.87109 z m 2.07813,2.71484 -1.31641,-1.79687 h -0.76172 v 1.79687 h -1.04297 v -5.08593 h 1.91406 c 0.53907,0 0.98047,0.14844 1.32032,0.44922 0.33984,0.30078 0.51172,0.69921 0.51172,1.1914 0,0.32422 -0.0781,0.60938 -0.23829,0.85938 -0.16015,0.25 -0.375,0.4414 -0.65234,0.58203 l 1.4375,2.0039" id="path186"/>
    <path style="fill:#000059;fill-opacity:1;fill-rule:nonzero;stroke:none" d="m 332.52706,488.12609 h 1.03907 v -5.08593 h -1.03907 z m 0,0" id="path187"/>
    <path style="fill:#000059;fill-opacity:1;fill-rule:nonzero;stroke:none" d="m 339.94113,483.97766 h -1.63282 v 4.14843 h -1.04296 v -4.14843 h -1.625 v -0.9375 h 4.30078" id="path188"/>
    <path style="fill:#000059;fill-opacity:1;fill-rule:nonzero;stroke:none" d="m 344.35519,486.12219 v 2.0039 h -1.03906 V 486.13 l -1.75391,-3.08984 h 1.15234 l 1.11719,2.01953 1.125,-2.01953 h 1.14844" id="path189"/>
  </g>
</svg>